<?xml version="1.0" encoding="UTF-8" standalone="yes"?><svg xmlns="http://www.w3.org/2000/svg" xmlns:xlink="http://www.w3.org/1999/xlink" height="775px" style="width:170px;height:775px;" version="1.1" viewBox="0 0 170 775" width="170px"><defs><filter height="300%" id="f7qstv7" width="300%" x="-1" y="-1"><feGaussianBlur result="blurOut" stdDeviation="2.0"/><feColorMatrix in="blurOut" result="blurOut2" type="matrix" values="0 0 0 0 0 0 0 0 0 0 0 0 0 0 0 0 0 0 .4 0"/><feOffset dx="4.0" dy="4.0" in="blurOut2" result="blurOut3"/><feBlend in="SourceGraphic" in2="blurOut3" mode="normal"/></filter></defs><g><ellipse cx="92" cy="18" fill="#000000" filter="url(#f7qstv7)" rx="10" ry="10" style="stroke: none; stroke-width: 1.0;"/><rect fill="#FEFECE" filter="url(#f7qstv7)" height="50" rx="12.5" ry="12.5" style="stroke: #A80036; stroke-width: 1.5;" width="50" x="67" y="88"/><line style="stroke: #A80036; stroke-width: 1.5;" x1="67" x2="117" y1="114.4883" y2="114.4883"/><text fill="#000000" font-family="sans-serif" font-size="14" lengthAdjust="spacingAndGlyphs" textLength="25" x="79.5" y="106.5352">idle</text><rect fill="#FEFECE" filter="url(#f7qstv7)" height="50" rx="12.5" ry="12.5" style="stroke: #A80036; stroke-width: 1.5;" width="80" x="6" y="198"/><line style="stroke: #A80036; stroke-width: 1.5;" x1="6" x2="86" y1="224.4883" y2="224.4883"/><text fill="#000000" font-family="sans-serif" font-size="14" lengthAdjust="spacingAndGlyphs" textLength="60" x="16" y="216.5352">idle_wait</text><rect fill="#FEFECE" filter="url(#f7qstv7)" height="50" rx="12.5" ry="12.5" style="stroke: #A80036; stroke-width: 1.5;" width="85" x="49.5" y="308"/><line style="stroke: #A80036; stroke-width: 1.5;" x1="49.5" x2="134.5" y1="334.4883" y2="334.4883"/><text fill="#000000" font-family="sans-serif" font-size="14" lengthAdjust="spacingAndGlyphs" textLength="65" x="59.5" y="326.5352">negotiate</text><rect fill="#FEFECE" filter="url(#f7qstv7)" height="50" rx="12.5" ry="12.5" style="stroke: #A80036; stroke-width: 1.5;" width="50" x="67" y="418"/><line style="stroke: #A80036; stroke-width: 1.5;" x1="67" x2="117" y1="444.4883" y2="444.4883"/><text fill="#000000" font-family="sans-serif" font-size="14" lengthAdjust="spacingAndGlyphs" textLength="28" x="78" y="436.5352">wait</text><rect fill="#FEFECE" filter="url(#f7qstv7)" height="50" rx="12.5" ry="12.5" style="stroke: #A80036; stroke-width: 1.5;" width="58" x="63" y="528"/><line style="stroke: #A80036; stroke-width: 1.5;" x1="63" x2="121" y1="554.4883" y2="554.4883"/><text fill="#000000" font-family="sans-serif" font-size="14" lengthAdjust="spacingAndGlyphs" textLength="38" x="73" y="546.5352">ready</text><rect fill="#FEFECE" filter="url(#f7qstv7)" height="50" rx="12.5" ry="12.5" style="stroke: #A80036; stroke-width: 1.5;" width="50" x="67" y="638"/><line style="stroke: #A80036; stroke-width: 1.5;" x1="67" x2="117" y1="664.4883" y2="664.4883"/><text fill="#000000" font-family="sans-serif" font-size="14" lengthAdjust="spacingAndGlyphs" textLength="30" x="77" y="656.5352">stop</text><ellipse cx="92" cy="758" fill="none" filter="url(#f7qstv7)" rx="10" ry="10" style="stroke: #000000; stroke-width: 1.0;"/><ellipse cx="92.5" cy="758.5" fill="#000000" rx="6" ry="6" style="stroke: none; stroke-width: 1.0;"/><path d="M92,28.257 C92,40.856 92,63.981 92,82.743 " fill="none" style="stroke: #A80036; stroke-width: 1.0;"/><polygon fill="#A80036" points="92,87.907,96,78.907,92,82.907,88,78.907,92,87.907" style="stroke: #A80036; stroke-width: 1.0;"/><path d="M81.6767,138.237 C74.7519,154.495 65.5976,175.988 58.2958,193.132 " fill="none" style="stroke: #A80036; stroke-width: 1.0;"/><polygon fill="#A80036" points="56.2888,197.844,63.4947,191.1302,58.2475,193.2436,56.1341,187.9964,56.2888,197.844" style="stroke: #A80036; stroke-width: 1.0;"/><path d="M56.3233,248.237 C63.2481,264.495 72.4024,285.988 79.7042,303.132 " fill="none" style="stroke: #A80036; stroke-width: 1.0;"/><polygon fill="#A80036" points="81.7112,307.844,81.8659,297.9964,79.7525,303.2436,74.5053,301.1302,81.7112,307.844" style="stroke: #A80036; stroke-width: 1.0;"/><path d="M134.644,312.658 C153.379,310.858 169.5,317.639 169.5,333 C169.5,346.921 156.26,353.795 139.833,353.622 " fill="none" style="stroke: #A80036; stroke-width: 1.0;"/><polygon fill="#A80036" points="134.644,353.342,143.4149,357.8221,139.6367,353.612,143.8469,349.8338,134.644,353.342" style="stroke: #A80036; stroke-width: 1.0;"/><path d="M96.3797,138.163 C99.1844,154.897 102.5589,177.722 104,198 C105.5753,220.166 105.5753,225.834 104,248 C102.7052,266.219 99.8499,286.493 97.2493,302.559 " fill="none" style="stroke: #A80036; stroke-width: 1.0;"/><polygon fill="#A80036" points="96.3797,307.837,101.7896,299.607,97.1926,302.9035,93.8961,298.3064,96.3797,307.837" style="stroke: #A80036; stroke-width: 1.0;"/><path d="M81.1568,358.237 C78.8493,374.357 78.6361,395.621 80.5173,412.691 " fill="none" style="stroke: #A80036; stroke-width: 1.0;"/><polygon fill="#A80036" points="81.1684,417.844,84.0106,408.4142,80.5427,412.8833,76.0735,409.4153,81.1684,417.844" style="stroke: #A80036; stroke-width: 1.0;"/><path d="M103.4688,417.844 C105.9195,401.742 106.153,380.479 104.1681,363.395 " fill="none" style="stroke: #A80036; stroke-width: 1.0;"/><polygon fill="#A80036" points="103.4811,358.237,100.7068,367.687,104.1425,363.1931,108.6365,366.6288,103.4811,358.237" style="stroke: #A80036; stroke-width: 1.0;"/><path d="M92,468.237 C92,484.357 92,505.621 92,522.691 " fill="none" style="stroke: #A80036; stroke-width: 1.0;"/><polygon fill="#A80036" points="92,527.844,96,518.844,92,522.844,88,518.844,92,527.844" style="stroke: #A80036; stroke-width: 1.0;"/><path d="M92,578.237 C92,594.357 92,615.621 92,632.691 " fill="none" style="stroke: #A80036; stroke-width: 1.0;"/><polygon fill="#A80036" points="92,637.844,96,628.844,92,632.844,88,628.844,92,637.844" style="stroke: #A80036; stroke-width: 1.0;"/><path d="M92,688.4347 C92,705.5384 92,727.827 92,742.2736 " fill="none" style="stroke: #A80036; stroke-width: 1.0;"/><polygon fill="#A80036" points="92,747.5817,96,738.5817,92,742.5817,88,738.5817,92,747.5817" style="stroke: #A80036; stroke-width: 1.0;"/></g></svg>