<?xml version="1.0" encoding="UTF-8" standalone="yes"?><svg xmlns="http://www.w3.org/2000/svg" xmlns:xlink="http://www.w3.org/1999/xlink" height="188px" style="width:386px;height:188px;" version="1.1" viewBox="0 0 386 188" width="386px"><defs><filter height="300%" id="fj9tjkv" width="300%" x="-1" y="-1"><feGaussianBlur result="blurOut" stdDeviation="2.0"/><feColorMatrix in="blurOut" result="blurOut2" type="matrix" values="0 0 0 0 0 0 0 0 0 0 0 0 0 0 0 0 0 0 .4 0"/><feOffset dx="4.0" dy="4.0" in="blurOut2" result="blurOut3"/><feBlend in="SourceGraphic" in2="blurOut3" mode="normal"/></filter></defs><g><!--entity あなた--><ellipse cx="27" cy="18" fill="#FEFECE" filter="url(#fj9tjkv)" rx="8" ry="8" style="stroke: #A80036; stroke-width: 2.0;"/><path d="M27,26 L27,53 M14,34 L40,34 M27,53 L14,68 M27,53 L40,68 " fill="#FEFECE" filter="url(#fj9tjkv)" style="stroke: #A80036; stroke-width: 2.0;"/><text fill="#000000" font-family="sans-serif" font-size="14" lengthAdjust="spacingAndGlyphs" textLength="42" x="6" y="88.5352">あなた</text><!--entity JimのFSM--><ellipse cx="354" cy="18" fill="#FEFECE" filter="url(#fj9tjkv)" rx="8" ry="8" style="stroke: #A80036; stroke-width: 2.0;"/><path d="M354,26 L354,53 M341,34 L367,34 M354,53 L341,68 M354,53 L367,68 " fill="#FEFECE" filter="url(#fj9tjkv)" style="stroke: #A80036; stroke-width: 2.0;"/><text fill="#000000" font-family="sans-serif" font-size="14" lengthAdjust="spacingAndGlyphs" textLength="63" x="322.5" y="88.5352">JimのFSM</text><ellipse cx="172.1777" cy="49.659" fill="#FEFECE" filter="url(#fj9tjkv)" rx="20.6777" ry="14.659" style="stroke: #A80036; stroke-width: 1.5;"/><text fill="#000000" font-family="sans-serif" font-size="14" lengthAdjust="spacingAndGlyphs" textLength="25" x="159.6777" y="54.4031">idle</text><ellipse cx="171.9264" cy="166.659" fill="#FEFECE" filter="url(#fj9tjkv)" rx="45.4264" ry="14.659" style="stroke: #A80036; stroke-width: 1.5;"/><text fill="#000000" font-family="sans-serif" font-size="14" lengthAdjust="spacingAndGlyphs" textLength="60" x="141.9264" y="171.4031">idle_wait</text><path d="M48.0842,49.5 C74.1123,49.5 118.356,49.5 146.333,49.5 " fill="none" style="stroke: #A80036; stroke-width: 1.0;"/><polygon fill="#A80036" points="151.36,49.5,142.36,45.5,146.36,49.5,142.36,53.5,151.36,49.5" style="stroke: #A80036; stroke-width: 1.0;"/><text fill="#000000" font-family="sans-serif" font-size="13" lengthAdjust="spacingAndGlyphs" textLength="59" x="70.25" y="28.0684">Jimと交渉</text><text fill="#000000" font-family="sans-serif" font-size="13" lengthAdjust="spacingAndGlyphs" textLength="67" x="66.25" y="43.3789">(negotiate)</text><path d="M192.524,49.5 C222.65,49.5 279.329,49.5 316.879,49.5 " fill="none" style="stroke: #A80036; stroke-width: 1.0;"/><polygon fill="#A80036" points="322.275,49.5,313.275,45.5,317.275,49.5,313.275,53.5,322.275,49.5" style="stroke: #A80036; stroke-width: 1.0;"/><text fill="#000000" font-family="sans-serif" font-size="13" lengthAdjust="spacingAndGlyphs" textLength="91" x="212" y="28.0684">交渉を申し込む</text><text fill="#000000" font-family="sans-serif" font-size="13" lengthAdjust="spacingAndGlyphs" textLength="93" x="211" y="43.3789">(ask negotiate)</text><path d="M172,64.144 C172,86.2764 172,129.7528 172,151.8741 " fill="none" style="stroke: #A80036; stroke-width: 1.0;"/></g></svg>