<?xml version="1.0" encoding="UTF-8" standalone="yes"?><svg xmlns="http://www.w3.org/2000/svg" xmlns:xlink="http://www.w3.org/1999/xlink" height="385px" style="width:421px;height:385px;" version="1.1" viewBox="0 0 421 385" width="421px"><defs><filter height="300%" id="f8dxk2p" width="300%" x="-1" y="-1"><feGaussianBlur result="blurOut" stdDeviation="2.0"/><feColorMatrix in="blurOut" result="blurOut2" type="matrix" values="0 0 0 0 0 0 0 0 0 0 0 0 0 0 0 0 0 0 .4 0"/><feOffset dx="4.0" dy="4.0" in="blurOut2" result="blurOut3"/><feBlend in="SourceGraphic" in2="blurOut3" mode="normal"/></filter></defs><g><line style="stroke: #A80036; stroke-width: 1.0; stroke-dasharray: 5.0,5.0;" x1="32" x2="32" y1="86.4883" y2="384.2832"/><line style="stroke: #A80036; stroke-width: 1.0; stroke-dasharray: 5.0,5.0;" x1="165" x2="165" y1="86.4883" y2="384.2832"/><line style="stroke: #A80036; stroke-width: 1.0; stroke-dasharray: 5.0,5.0;" x1="266" x2="266" y1="86.4883" y2="384.2832"/><line style="stroke: #A80036; stroke-width: 1.0; stroke-dasharray: 5.0,5.0;" x1="399.5" x2="399.5" y1="86.4883" y2="384.2832"/><text fill="#000000" font-family="sans-serif" font-size="14" lengthAdjust="spacingAndGlyphs" textLength="42" x="8" y="83.5352">あなた</text><ellipse cx="32" cy="13" fill="#FEFECE" filter="url(#f8dxk2p)" rx="8" ry="8" style="stroke: #A80036; stroke-width: 2.0;"/><path d="M32,21 L32,48 M19,29 L45,29 M32,48 L19,63 M32,48 L45,63 " fill="#FEFECE" filter="url(#f8dxk2p)" style="stroke: #A80036; stroke-width: 2.0;"/><rect fill="#FEFECE" filter="url(#f8dxk2p)" height="30.4883" style="stroke: #A80036; stroke-width: 1.5;" width="98" x="114" y="51"/><text fill="#000000" font-family="sans-serif" font-size="14" lengthAdjust="spacingAndGlyphs" textLength="84" x="121" y="71.5352">あなたのFSM</text><rect fill="#FEFECE" filter="url(#f8dxk2p)" height="30.4883" style="stroke: #A80036; stroke-width: 1.5;" width="77" x="226" y="51"/><text fill="#000000" font-family="sans-serif" font-size="14" lengthAdjust="spacingAndGlyphs" textLength="63" x="233" y="71.5352">JimのFSM</text><text fill="#000000" font-family="sans-serif" font-size="14" lengthAdjust="spacingAndGlyphs" textLength="21" x="386" y="83.5352">Jim</text><ellipse cx="399.5" cy="13" fill="#FEFECE" filter="url(#f8dxk2p)" rx="8" ry="8" style="stroke: #A80036; stroke-width: 2.0;"/><path d="M399.5,21 L399.5,48 M386.5,29 L412.5,29 M399.5,48 L386.5,63 M399.5,48 L412.5,63 " fill="#FEFECE" filter="url(#f8dxk2p)" style="stroke: #A80036; stroke-width: 2.0;"/><polygon fill="#A80036" points="153,113.4883,163,117.4883,153,121.4883,157,117.4883" style="stroke: #A80036; stroke-width: 1.0;"/><line style="stroke: #A80036; stroke-width: 1.0;" x1="32" x2="159" y1="117.4883" y2="117.4883"/><text fill="#000000" font-family="sans-serif" font-size="13" lengthAdjust="spacingAndGlyphs" textLength="46" x="39" y="113.0566">ask Jim</text><line style="stroke: #A80036; stroke-width: 1.0;" x1="264.5" x2="254.5" y1="146.7988" y2="142.7988"/><line style="stroke: #A80036; stroke-width: 1.0;" x1="264.5" x2="254.5" y1="146.7988" y2="150.7988"/><line style="stroke: #A80036; stroke-width: 1.0;" x1="165" x2="265.5" y1="146.7988" y2="146.7988"/><text fill="#000000" font-family="sans-serif" font-size="13" lengthAdjust="spacingAndGlyphs" textLength="64" x="172" y="142.3672">negotiate?</text><polygon fill="#A80036" points="277.5,172.1094,267.5,176.1094,277.5,180.1094,273.5,176.1094" style="stroke: #A80036; stroke-width: 1.0;"/><line style="stroke: #A80036; stroke-width: 1.0;" x1="271.5" x2="398.5" y1="176.1094" y2="176.1094"/><text fill="#000000" font-family="sans-serif" font-size="13" lengthAdjust="spacingAndGlyphs" textLength="16" x="283.5" y="171.6777">ok</text><line style="stroke: #A80036; stroke-width: 1.0;" x1="165" x2="175" y1="205.4199" y2="201.4199"/><line style="stroke: #A80036; stroke-width: 1.0;" x1="165" x2="175" y1="205.4199" y2="209.4199"/><line style="stroke: #A80036; stroke-width: 1.0;" x1="165" x2="265.5" y1="205.4199" y2="205.4199"/><text fill="#000000" font-family="sans-serif" font-size="13" lengthAdjust="spacingAndGlyphs" textLength="16" x="182" y="200.9883">ok</text><polygon fill="#A80036" points="153,230.7305,163,234.7305,153,238.7305,157,234.7305" style="stroke: #A80036; stroke-width: 1.0;"/><line style="stroke: #A80036; stroke-width: 1.0;" x1="32" x2="159" y1="234.7305" y2="234.7305"/><text fill="#000000" font-family="sans-serif" font-size="13" lengthAdjust="spacingAndGlyphs" textLength="109" x="39" y="230.2988">offerまたはcancel</text><polygon fill="#A80036" points="277.5,260.041,267.5,264.041,277.5,268.041,273.5,264.041" style="stroke: #A80036; stroke-width: 1.0;"/><line style="stroke: #A80036; stroke-width: 1.0;" x1="271.5" x2="398.5" y1="264.041" y2="264.041"/><text fill="#000000" font-family="sans-serif" font-size="13" lengthAdjust="spacingAndGlyphs" textLength="109" x="283.5" y="259.6094">offerまたはcancel</text><line style="stroke: #A80036; stroke-width: 1.0;" x1="165" x2="175" y1="278.3516" y2="274.3516"/><line style="stroke: #A80036; stroke-width: 1.0;" x1="165" x2="175" y1="278.3516" y2="282.3516"/><line style="stroke: #A80036; stroke-width: 1.0;" x1="264.5" x2="254.5" y1="278.3516" y2="274.3516"/><line style="stroke: #A80036; stroke-width: 1.0;" x1="264.5" x2="254.5" y1="278.3516" y2="282.3516"/><line style="stroke: #A80036; stroke-width: 1.0;" x1="165" x2="265.5" y1="278.3516" y2="278.3516"/><polygon fill="#A80036" points="153,303.3516,163,307.3516,153,311.3516,157,307.3516" style="stroke: #A80036; stroke-width: 1.0;"/><line style="stroke: #A80036; stroke-width: 1.0;" x1="32" x2="159" y1="307.3516" y2="307.3516"/><text fill="#000000" font-family="sans-serif" font-size="13" lengthAdjust="spacingAndGlyphs" textLength="34" x="39" y="302.9199">ready</text><polygon fill="#A80036" points="277.5,332.6621,267.5,336.6621,277.5,340.6621,273.5,336.6621" style="stroke: #A80036; stroke-width: 1.0;"/><line style="stroke: #A80036; stroke-width: 1.0;" x1="271.5" x2="398.5" y1="336.6621" y2="336.6621"/><text fill="#000000" font-family="sans-serif" font-size="13" lengthAdjust="spacingAndGlyphs" textLength="34" x="283.5" y="332.2305">ready</text><polygon fill="#A80036" points="176,361.9727,166,365.9727,176,369.9727,172,365.9727" style="stroke: #A80036; stroke-width: 1.0;"/><polygon fill="#A80036" points="254.5,361.9727,264.5,365.9727,254.5,369.9727,258.5,365.9727" style="stroke: #A80036; stroke-width: 1.0;"/><line style="stroke: #A80036; stroke-width: 1.0;" x1="170" x2="260.5" y1="365.9727" y2="365.9727"/><text fill="#000000" font-family="sans-serif" font-size="13" lengthAdjust="spacingAndGlyphs" textLength="26" x="182" y="361.541">取引</text></g></svg>