<?xml version="1.0" encoding="UTF-8" standalone="yes"?><svg xmlns="http://www.w3.org/2000/svg" xmlns:xlink="http://www.w3.org/1999/xlink" height="555px" style="width:364px;height:555px;" version="1.1" viewBox="0 0 364 555" width="364px"><defs><filter height="300%" id="fa53j13" width="300%" x="-1" y="-1"><feGaussianBlur result="blurOut" stdDeviation="2.0"/><feColorMatrix in="blurOut" result="blurOut2" type="matrix" values="0 0 0 0 0 0 0 0 0 0 0 0 0 0 0 0 0 0 .4 0"/><feOffset dx="4.0" dy="4.0" in="blurOut2" result="blurOut3"/><feBlend in="SourceGraphic" in2="blurOut3" mode="normal"/></filter></defs><g><rect fill="#FFFFFF" filter="url(#fa53j13)" height="187.1738" style="stroke: #000000; stroke-width: 2.0;" width="228.5" x="62" y="271.3516"/><rect fill="#FFFFFF" height="85.9316" style="stroke: none; stroke-width: 1.0;" width="228.5" x="62" y="372.5938"/><line style="stroke: #A80036; stroke-width: 1.0; stroke-dasharray: 5.0,5.0;" x1="32" x2="32" y1="86.4883" y2="554.1465"/><line style="stroke: #A80036; stroke-width: 1.0; stroke-dasharray: 5.0,5.0;" x1="123" x2="123" y1="86.4883" y2="554.1465"/><line style="stroke: #A80036; stroke-width: 1.0; stroke-dasharray: 5.0,5.0;" x1="239.5" x2="239.5" y1="86.4883" y2="554.1465"/><line style="stroke: #A80036; stroke-width: 1.0; stroke-dasharray: 5.0,5.0;" x1="342" x2="342" y1="86.4883" y2="554.1465"/><text fill="#000000" font-family="sans-serif" font-size="14" lengthAdjust="spacingAndGlyphs" textLength="42" x="8" y="83.5352">あなた</text><ellipse cx="32" cy="13" fill="#FEFECE" filter="url(#fa53j13)" rx="8" ry="8" style="stroke: #A80036; stroke-width: 2.0;"/><path d="M32,21 L32,48 M19,29 L45,29 M32,48 L19,63 M32,48 L45,63 " fill="#FEFECE" filter="url(#fa53j13)" style="stroke: #A80036; stroke-width: 2.0;"/><rect fill="#FEFECE" filter="url(#fa53j13)" height="30.4883" style="stroke: #A80036; stroke-width: 1.5;" width="98" x="72" y="51"/><text fill="#000000" font-family="sans-serif" font-size="14" lengthAdjust="spacingAndGlyphs" textLength="84" x="79" y="71.5352">あなたのFSM</text><rect fill="#FEFECE" filter="url(#fa53j13)" height="30.4883" style="stroke: #A80036; stroke-width: 1.5;" width="77" x="199.5" y="51"/><text fill="#000000" font-family="sans-serif" font-size="14" lengthAdjust="spacingAndGlyphs" textLength="63" x="206.5" y="71.5352">JimのFSM</text><text fill="#000000" font-family="sans-serif" font-size="14" lengthAdjust="spacingAndGlyphs" textLength="21" x="328.5" y="83.5352">Jim</text><ellipse cx="342" cy="13" fill="#FEFECE" filter="url(#fa53j13)" rx="8" ry="8" style="stroke: #A80036; stroke-width: 2.0;"/><path d="M342,21 L342,48 M329,29 L355,29 M342,48 L329,63 M342,48 L355,63 " fill="#FEFECE" filter="url(#fa53j13)" style="stroke: #A80036; stroke-width: 2.0;"/><polygon fill="#FBFB77" filter="url(#fa53j13)" points="99,101.4883,99,126.4883,143,126.4883,143,111.4883,133,101.4883,99,101.4883" style="stroke: #A80036; stroke-width: 1.0;"/><line style="stroke: #A80036; stroke-width: 1.0;" x1="133" x2="133" y1="101.4883" y2="111.4883"/><line style="stroke: #A80036; stroke-width: 1.0;" x1="143" x2="133" y1="111.4883" y2="111.4883"/><text fill="#000000" font-family="sans-serif" font-size="13" lengthAdjust="spacingAndGlyphs" textLength="23" x="105" y="119.0566">idle</text><polygon fill="#FBFB77" filter="url(#fa53j13)" points="216,140.7988,216,165.7988,260,165.7988,260,150.7988,250,140.7988,216,140.7988" style="stroke: #A80036; stroke-width: 1.0;"/><line style="stroke: #A80036; stroke-width: 1.0;" x1="250" x2="250" y1="140.7988" y2="150.7988"/><line style="stroke: #A80036; stroke-width: 1.0;" x1="260" x2="250" y1="150.7988" y2="150.7988"/><text fill="#000000" font-family="sans-serif" font-size="13" lengthAdjust="spacingAndGlyphs" textLength="23" x="222" y="158.3672">idle</text><polygon fill="#A80036" points="111,207.1094,121,211.1094,111,215.1094,115,211.1094" style="stroke: #A80036; stroke-width: 1.0;"/><line style="stroke: #A80036; stroke-width: 1.0;" x1="32" x2="117" y1="211.1094" y2="211.1094"/><text fill="#000000" font-family="sans-serif" font-size="13" lengthAdjust="spacingAndGlyphs" textLength="59" x="39" y="191.6777">Jimと交渉</text><text fill="#000000" font-family="sans-serif" font-size="13" lengthAdjust="spacingAndGlyphs" textLength="67" x="39" y="206.9883">(negotiate)</text><polygon fill="#A80036" points="251,251.7305,241,255.7305,251,259.7305,247,255.7305" style="stroke: #A80036; stroke-width: 1.0;"/><line style="stroke: #A80036; stroke-width: 1.0;" x1="245" x2="341" y1="255.7305" y2="255.7305"/><text fill="#000000" font-family="sans-serif" font-size="13" lengthAdjust="spacingAndGlyphs" textLength="78" x="257" y="236.2988">あなたと交渉</text><text fill="#000000" font-family="sans-serif" font-size="13" lengthAdjust="spacingAndGlyphs" textLength="67" x="257" y="251.6094">(negotiate)</text><rect fill="none" height="187.1738" style="stroke: #000000; stroke-width: 2.0;" width="228.5" x="62" y="271.3516"/><polygon fill="#EEEEEE" points="62,271.3516,130,271.3516,130,278.3516,120,288.3516,62,288.3516,62,271.3516" style="stroke: #000000; stroke-width: 2.0;"/><text fill="#000000" font-family="sans-serif" font-size="13" font-weight="bold" lengthAdjust="spacingAndGlyphs" textLength="23" x="77" y="284.9199">par</text><line style="stroke: #A80036; stroke-width: 1.0;" x1="238" x2="228" y1="324.6621" y2="320.6621"/><line style="stroke: #A80036; stroke-width: 1.0;" x1="238" x2="228" y1="324.6621" y2="328.6621"/><line style="stroke: #A80036; stroke-width: 1.0;" x1="123" x2="239" y1="324.6621" y2="324.6621"/><text fill="#000000" font-family="sans-serif" font-size="13" lengthAdjust="spacingAndGlyphs" textLength="91" x="130" y="305.2305">交渉を申し込む</text><text fill="#000000" font-family="sans-serif" font-size="13" lengthAdjust="spacingAndGlyphs" textLength="93" x="130" y="320.541">(ack negotiate)</text><polygon fill="#FBFB77" filter="url(#fa53j13)" points="82,338.2832,82,363.2832,159,363.2832,159,348.2832,149,338.2832,82,338.2832" style="stroke: #A80036; stroke-width: 1.0;"/><line style="stroke: #A80036; stroke-width: 1.0;" x1="149" x2="149" y1="338.2832" y2="348.2832"/><line style="stroke: #A80036; stroke-width: 1.0;" x1="159" x2="149" y1="348.2832" y2="348.2832"/><text fill="#000000" font-family="sans-serif" font-size="13" lengthAdjust="spacingAndGlyphs" textLength="56" x="88" y="355.8516">idle_wait</text><line style="stroke: #000000; stroke-width: 1.0; stroke-dasharray: 2.0,2.0;" x1="62" x2="290.5" y1="373.5938" y2="373.5938"/><line style="stroke: #A80036; stroke-width: 1.0;" x1="123" x2="133" y1="410.5938" y2="406.5938"/><line style="stroke: #A80036; stroke-width: 1.0;" x1="123" x2="133" y1="410.5938" y2="414.5938"/><line style="stroke: #A80036; stroke-width: 1.0;" x1="123" x2="239" y1="410.5938" y2="410.5938"/><text fill="#000000" font-family="sans-serif" font-size="13" lengthAdjust="spacingAndGlyphs" textLength="91" x="140" y="391.1621">交渉を申し込む</text><text fill="#000000" font-family="sans-serif" font-size="13" lengthAdjust="spacingAndGlyphs" textLength="93" x="140" y="406.4727">(ack negotiate)</text><polygon fill="#FBFB77" filter="url(#fa53j13)" points="199,424.2148,199,449.2148,276,449.2148,276,434.2148,266,424.2148,199,424.2148" style="stroke: #A80036; stroke-width: 1.0;"/><line style="stroke: #A80036; stroke-width: 1.0;" x1="266" x2="266" y1="424.2148" y2="434.2148"/><line style="stroke: #A80036; stroke-width: 1.0;" x1="276" x2="266" y1="434.2148" y2="434.2148"/><text fill="#000000" font-family="sans-serif" font-size="13" lengthAdjust="spacingAndGlyphs" textLength="56" x="205" y="441.7832">idle_wait</text><polygon fill="#FBFB77" filter="url(#fa53j13)" points="198,470.5254,198,495.5254,278,495.5254,278,480.5254,268,470.5254,198,470.5254" style="stroke: #A80036; stroke-width: 1.0;"/><line style="stroke: #A80036; stroke-width: 1.0;" x1="268" x2="268" y1="470.5254" y2="480.5254"/><line style="stroke: #A80036; stroke-width: 1.0;" x1="278" x2="268" y1="480.5254" y2="480.5254"/><text fill="#000000" font-family="sans-serif" font-size="13" lengthAdjust="spacingAndGlyphs" textLength="59" x="204" y="488.0938">negotiate</text><polygon fill="#FBFB77" filter="url(#fa53j13)" points="81,509.8359,81,534.8359,161,534.8359,161,519.8359,151,509.8359,81,509.8359" style="stroke: #A80036; stroke-width: 1.0;"/><line style="stroke: #A80036; stroke-width: 1.0;" x1="151" x2="151" y1="509.8359" y2="519.8359"/><line style="stroke: #A80036; stroke-width: 1.0;" x1="161" x2="151" y1="519.8359" y2="519.8359"/><text fill="#000000" font-family="sans-serif" font-size="13" lengthAdjust="spacingAndGlyphs" textLength="59" x="87" y="527.4043">negotiate</text></g></svg>