<?xml version="1.0" encoding="UTF-8" standalone="yes"?><svg xmlns="http://www.w3.org/2000/svg" xmlns:xlink="http://www.w3.org/1999/xlink" height="482px" style="width:351px;height:482px;" version="1.1" viewBox="0 0 351 482" width="351px"><defs><filter height="300%" id="foqao7k" width="300%" x="-1" y="-1"><feGaussianBlur result="blurOut" stdDeviation="2.0"/><feColorMatrix in="blurOut" result="blurOut2" type="matrix" values="0 0 0 0 0 0 0 0 0 0 0 0 0 0 0 0 0 0 .4 0"/><feOffset dx="4.0" dy="4.0" in="blurOut2" result="blurOut3"/><feBlend in="SourceGraphic" in2="blurOut3" mode="normal"/></filter></defs><g><line style="stroke: #A80036; stroke-width: 1.0; stroke-dasharray: 5.0,5.0;" x1="32" x2="32" y1="86.4883" y2="481.5254"/><line style="stroke: #A80036; stroke-width: 1.0; stroke-dasharray: 5.0,5.0;" x1="123" x2="123" y1="86.4883" y2="481.5254"/><line style="stroke: #A80036; stroke-width: 1.0; stroke-dasharray: 5.0,5.0;" x1="239.5" x2="239.5" y1="86.4883" y2="481.5254"/><line style="stroke: #A80036; stroke-width: 1.0; stroke-dasharray: 5.0,5.0;" x1="329" x2="329" y1="86.4883" y2="481.5254"/><text fill="#000000" font-family="sans-serif" font-size="14" lengthAdjust="spacingAndGlyphs" textLength="42" x="8" y="83.5352">あなた</text><ellipse cx="32" cy="13" fill="#FEFECE" filter="url(#foqao7k)" rx="8" ry="8" style="stroke: #A80036; stroke-width: 2.0;"/><path d="M32,21 L32,48 M19,29 L45,29 M32,48 L19,63 M32,48 L45,63 " fill="#FEFECE" filter="url(#foqao7k)" style="stroke: #A80036; stroke-width: 2.0;"/><rect fill="#FEFECE" filter="url(#foqao7k)" height="30.4883" style="stroke: #A80036; stroke-width: 1.5;" width="98" x="72" y="51"/><text fill="#000000" font-family="sans-serif" font-size="14" lengthAdjust="spacingAndGlyphs" textLength="84" x="79" y="71.5352">あなたのFSM</text><rect fill="#FEFECE" filter="url(#foqao7k)" height="30.4883" style="stroke: #A80036; stroke-width: 1.5;" width="77" x="199.5" y="51"/><text fill="#000000" font-family="sans-serif" font-size="14" lengthAdjust="spacingAndGlyphs" textLength="63" x="206.5" y="71.5352">JimのFSM</text><text fill="#000000" font-family="sans-serif" font-size="14" lengthAdjust="spacingAndGlyphs" textLength="21" x="315.5" y="83.5352">Jim</text><ellipse cx="329" cy="13" fill="#FEFECE" filter="url(#foqao7k)" rx="8" ry="8" style="stroke: #A80036; stroke-width: 2.0;"/><path d="M329,21 L329,48 M316,29 L342,29 M329,48 L316,63 M329,48 L342,63 " fill="#FEFECE" filter="url(#foqao7k)" style="stroke: #A80036; stroke-width: 2.0;"/><polygon fill="#FBFB77" filter="url(#foqao7k)" points="99,101.4883,99,126.4883,143,126.4883,143,111.4883,133,101.4883,99,101.4883" style="stroke: #A80036; stroke-width: 1.0;"/><line style="stroke: #A80036; stroke-width: 1.0;" x1="133" x2="133" y1="101.4883" y2="111.4883"/><line style="stroke: #A80036; stroke-width: 1.0;" x1="143" x2="133" y1="111.4883" y2="111.4883"/><text fill="#000000" font-family="sans-serif" font-size="13" lengthAdjust="spacingAndGlyphs" textLength="23" x="105" y="119.0566">idle</text><polygon fill="#FBFB77" filter="url(#foqao7k)" points="216,140.7988,216,165.7988,260,165.7988,260,150.7988,250,140.7988,216,140.7988" style="stroke: #A80036; stroke-width: 1.0;"/><line style="stroke: #A80036; stroke-width: 1.0;" x1="250" x2="250" y1="140.7988" y2="150.7988"/><line style="stroke: #A80036; stroke-width: 1.0;" x1="260" x2="250" y1="150.7988" y2="150.7988"/><text fill="#000000" font-family="sans-serif" font-size="13" lengthAdjust="spacingAndGlyphs" textLength="23" x="222" y="158.3672">idle</text><polygon fill="#A80036" points="111,207.1094,121,211.1094,111,215.1094,115,211.1094" style="stroke: #A80036; stroke-width: 1.0;"/><line style="stroke: #A80036; stroke-width: 1.0;" x1="32" x2="117" y1="211.1094" y2="211.1094"/><text fill="#000000" font-family="sans-serif" font-size="13" lengthAdjust="spacingAndGlyphs" textLength="59" x="39" y="191.6777">Jimと交渉</text><text fill="#000000" font-family="sans-serif" font-size="13" lengthAdjust="spacingAndGlyphs" textLength="67" x="39" y="206.9883">(negotiate)</text><line style="stroke: #A80036; stroke-width: 1.0;" x1="238" x2="228" y1="255.7305" y2="251.7305"/><line style="stroke: #A80036; stroke-width: 1.0;" x1="238" x2="228" y1="255.7305" y2="259.7305"/><line style="stroke: #A80036; stroke-width: 1.0;" x1="123" x2="239" y1="255.7305" y2="255.7305"/><text fill="#000000" font-family="sans-serif" font-size="13" lengthAdjust="spacingAndGlyphs" textLength="91" x="130" y="236.2988">交渉を申し込む</text><text fill="#000000" font-family="sans-serif" font-size="13" lengthAdjust="spacingAndGlyphs" textLength="93" x="130" y="251.6094">(ack negotiate)</text><polygon fill="#FBFB77" filter="url(#foqao7k)" points="82,269.3516,82,294.3516,159,294.3516,159,279.3516,149,269.3516,82,269.3516" style="stroke: #A80036; stroke-width: 1.0;"/><line style="stroke: #A80036; stroke-width: 1.0;" x1="149" x2="149" y1="269.3516" y2="279.3516"/><line style="stroke: #A80036; stroke-width: 1.0;" x1="159" x2="149" y1="279.3516" y2="279.3516"/><text fill="#000000" font-family="sans-serif" font-size="13" lengthAdjust="spacingAndGlyphs" textLength="56" x="88" y="286.9199">idle_wait</text><polygon fill="#A80036" points="251,335.6621,241,339.6621,251,343.6621,247,339.6621" style="stroke: #A80036; stroke-width: 1.0;"/><line style="stroke: #A80036; stroke-width: 1.0;" x1="245" x2="328" y1="339.6621" y2="339.6621"/><text fill="#000000" font-family="sans-serif" font-size="13" lengthAdjust="spacingAndGlyphs" textLength="65" x="257" y="320.2305">受け入れて</text><text fill="#000000" font-family="sans-serif" font-size="13" lengthAdjust="spacingAndGlyphs" textLength="49" x="257" y="335.541">(accept)</text><line style="stroke: #A80036; stroke-width: 1.0;" x1="123" x2="133" y1="384.2832" y2="380.2832"/><line style="stroke: #A80036; stroke-width: 1.0;" x1="123" x2="133" y1="384.2832" y2="388.2832"/><line style="stroke: #A80036; stroke-width: 1.0;" x1="123" x2="239" y1="384.2832" y2="384.2832"/><text fill="#000000" font-family="sans-serif" font-size="13" lengthAdjust="spacingAndGlyphs" textLength="65" x="140" y="364.8516">受け入れた</text><text fill="#000000" font-family="sans-serif" font-size="13" lengthAdjust="spacingAndGlyphs" textLength="64" x="140" y="380.1621">(accepted)</text><polygon fill="#FBFB77" filter="url(#foqao7k)" points="198,397.9043,198,422.9043,278,422.9043,278,407.9043,268,397.9043,198,397.9043" style="stroke: #A80036; stroke-width: 1.0;"/><line style="stroke: #A80036; stroke-width: 1.0;" x1="268" x2="268" y1="397.9043" y2="407.9043"/><line style="stroke: #A80036; stroke-width: 1.0;" x1="278" x2="268" y1="407.9043" y2="407.9043"/><text fill="#000000" font-family="sans-serif" font-size="13" lengthAdjust="spacingAndGlyphs" textLength="59" x="204" y="415.4727">negotiate</text><polygon fill="#FBFB77" filter="url(#foqao7k)" points="81,437.2148,81,462.2148,161,462.2148,161,447.2148,151,437.2148,81,437.2148" style="stroke: #A80036; stroke-width: 1.0;"/><line style="stroke: #A80036; stroke-width: 1.0;" x1="151" x2="151" y1="437.2148" y2="447.2148"/><line style="stroke: #A80036; stroke-width: 1.0;" x1="161" x2="151" y1="447.2148" y2="447.2148"/><text fill="#000000" font-family="sans-serif" font-size="13" lengthAdjust="spacingAndGlyphs" textLength="59" x="87" y="454.7832">negotiate</text></g></svg>