<?xml version="1.0" encoding="UTF-8" standalone="no"?><svg xmlns="http://www.w3.org/2000/svg" xmlns:xlink="http://www.w3.org/1999/xlink" contentScriptType="application/ecmascript" contentStyleType="text/css" height="1547px" preserveAspectRatio="none" style="width:500px;height:1547px;" version="1.1" viewBox="0 0 500 1547" width="500px" zoomAndPan="magnify"><defs><filter height="300%" id="fys6mf5" width="300%" x="-1" y="-1"><feGaussianBlur result="blurOut" stdDeviation="2.0"/><feColorMatrix in="blurOut" result="blurOut2" type="matrix" values="0 0 0 0 0 0 0 0 0 0 0 0 0 0 0 0 0 0 .4 0"/><feOffset dx="4.0" dy="4.0" in="blurOut2" result="blurOut3"/><feBlend in="SourceGraphic" in2="blurOut3" mode="normal"/></filter></defs><g><rect fill="#FFFFFF" filter="url(#fys6mf5)" height="259.0371" style="stroke: #000000; stroke-width: 2.0;" width="478" x="13" y="478.5254"/><rect fill="#FFFFFF" height="121.8633" style="stroke: none; stroke-width: 1.0;" width="478" x="13" y="615.6992"/><rect fill="#FFFFFF" filter="url(#fys6mf5)" height="596.1895" style="stroke: #000000; stroke-width: 2.0;" width="331.5" x="86" y="849.4941"/><rect fill="#FFFFFF" height="44.2656" style="stroke: none; stroke-width: 1.0;" width="331.5" x="86" y="1317.8418"/><rect fill="#FFFFFF" height="83.5762" style="stroke: none; stroke-width: 1.0;" width="331.5" x="86" y="1362.1074"/><line style="stroke: #A80036; stroke-width: 1.0; stroke-dasharray: 5.0,5.0;" x1="47" x2="47" y1="86.4883" y2="1462.6836"/><line style="stroke: #A80036; stroke-width: 1.0; stroke-dasharray: 5.0,5.0;" x1="147" x2="147" y1="86.4883" y2="1462.6836"/><line style="stroke: #A80036; stroke-width: 1.0; stroke-dasharray: 5.0,5.0;" x1="366.5" x2="366.5" y1="86.4883" y2="1462.6836"/><line style="stroke: #A80036; stroke-width: 1.0; stroke-dasharray: 5.0,5.0;" x1="466" x2="466" y1="86.4883" y2="1462.6836"/><text fill="#000000" font-family="sans-serif" font-size="14" lengthAdjust="spacingAndGlyphs" textLength="42" x="23" y="83.5352">あなた</text><ellipse cx="47" cy="13" fill="#FEFECE" filter="url(#fys6mf5)" rx="8" ry="8" style="stroke: #A80036; stroke-width: 2.0;"/><path d="M47,21 L47,48 M34,29 L60,29 M47,48 L34,63 M47,48 L60,63 " fill="#FEFECE" filter="url(#fys6mf5)" style="stroke: #A80036; stroke-width: 2.0;"/><text fill="#000000" font-family="sans-serif" font-size="14" lengthAdjust="spacingAndGlyphs" textLength="42" x="23" y="1475.2188">あなた</text><ellipse cx="47" cy="1488.1719" fill="#FEFECE" filter="url(#fys6mf5)" rx="8" ry="8" style="stroke: #A80036; stroke-width: 2.0;"/><path d="M47,1496.1719 L47,1523.1719 M34,1504.1719 L60,1504.1719 M47,1523.1719 L34,1538.1719 M47,1523.1719 L60,1538.1719 " fill="#FEFECE" filter="url(#fys6mf5)" style="stroke: #A80036; stroke-width: 2.0;"/><rect fill="#FEFECE" filter="url(#fys6mf5)" height="30.4883" style="stroke: #A80036; stroke-width: 1.5;" width="98" x="96" y="51"/><text fill="#000000" font-family="sans-serif" font-size="14" lengthAdjust="spacingAndGlyphs" textLength="84" x="103" y="71.5352">あなたのFSM</text><rect fill="#FEFECE" filter="url(#fys6mf5)" height="30.4883" style="stroke: #A80036; stroke-width: 1.5;" width="98" x="96" y="1461.6836"/><text fill="#000000" font-family="sans-serif" font-size="14" lengthAdjust="spacingAndGlyphs" textLength="84" x="103" y="1482.2188">あなたのFSM</text><rect fill="#FEFECE" filter="url(#fys6mf5)" height="30.4883" style="stroke: #A80036; stroke-width: 1.5;" width="77" x="326.5" y="51"/><text fill="#000000" font-family="sans-serif" font-size="14" lengthAdjust="spacingAndGlyphs" textLength="63" x="333.5" y="71.5352">JimのFSM</text><rect fill="#FEFECE" filter="url(#fys6mf5)" height="30.4883" style="stroke: #A80036; stroke-width: 1.5;" width="77" x="326.5" y="1461.6836"/><text fill="#000000" font-family="sans-serif" font-size="14" lengthAdjust="spacingAndGlyphs" textLength="63" x="333.5" y="1482.2188">JimのFSM</text><text fill="#000000" font-family="sans-serif" font-size="14" lengthAdjust="spacingAndGlyphs" textLength="21" x="452.5" y="83.5352">Jim</text><ellipse cx="466" cy="13" fill="#FEFECE" filter="url(#fys6mf5)" rx="8" ry="8" style="stroke: #A80036; stroke-width: 2.0;"/><path d="M466,21 L466,48 M453,29 L479,29 M466,48 L453,63 M466,48 L479,63 " fill="#FEFECE" filter="url(#fys6mf5)" style="stroke: #A80036; stroke-width: 2.0;"/><text fill="#000000" font-family="sans-serif" font-size="14" lengthAdjust="spacingAndGlyphs" textLength="21" x="452.5" y="1475.2188">Jim</text><ellipse cx="466" cy="1488.1719" fill="#FEFECE" filter="url(#fys6mf5)" rx="8" ry="8" style="stroke: #A80036; stroke-width: 2.0;"/><path d="M466,1496.1719 L466,1523.1719 M453,1504.1719 L479,1504.1719 M466,1523.1719 L453,1538.1719 M466,1523.1719 L479,1538.1719 " fill="#FEFECE" filter="url(#fys6mf5)" style="stroke: #A80036; stroke-width: 2.0;"/><polygon fill="#FBFB77" filter="url(#fys6mf5)" points="123,101.4883,123,126.4883,167,126.4883,167,111.4883,157,101.4883,123,101.4883" style="stroke: #A80036; stroke-width: 1.0;"/><line style="stroke: #A80036; stroke-width: 1.0;" x1="157" x2="157" y1="101.4883" y2="111.4883"/><line style="stroke: #A80036; stroke-width: 1.0;" x1="167" x2="157" y1="111.4883" y2="111.4883"/><text fill="#000000" font-family="sans-serif" font-size="13" lengthAdjust="spacingAndGlyphs" textLength="23" x="129" y="119.0566">idle</text><polygon fill="#FBFB77" filter="url(#fys6mf5)" points="343,140.7988,343,165.7988,387,165.7988,387,150.7988,377,140.7988,343,140.7988" style="stroke: #A80036; stroke-width: 1.0;"/><line style="stroke: #A80036; stroke-width: 1.0;" x1="377" x2="377" y1="140.7988" y2="150.7988"/><line style="stroke: #A80036; stroke-width: 1.0;" x1="387" x2="377" y1="150.7988" y2="150.7988"/><text fill="#000000" font-family="sans-serif" font-size="13" lengthAdjust="spacingAndGlyphs" textLength="23" x="349" y="158.3672">idle</text><polygon fill="#A80036" points="135,207.1094,145,211.1094,135,215.1094,139,211.1094" style="stroke: #A80036; stroke-width: 1.0;"/><line style="stroke: #A80036; stroke-width: 1.0;" x1="47" x2="141" y1="211.1094" y2="211.1094"/><text fill="#000000" font-family="sans-serif" font-size="13" lengthAdjust="spacingAndGlyphs" textLength="59" x="54" y="191.6777">Jimと交渉</text><text fill="#000000" font-family="sans-serif" font-size="13" lengthAdjust="spacingAndGlyphs" textLength="67" x="54" y="206.9883">(negotiate)</text><line style="stroke: #A80036; stroke-width: 1.0;" x1="365" x2="355" y1="255.7305" y2="251.7305"/><line style="stroke: #A80036; stroke-width: 1.0;" x1="365" x2="355" y1="255.7305" y2="259.7305"/><line style="stroke: #A80036; stroke-width: 1.0;" x1="147" x2="366" y1="255.7305" y2="255.7305"/><text fill="#000000" font-family="sans-serif" font-size="13" lengthAdjust="spacingAndGlyphs" textLength="91" x="154" y="236.2988">交渉を申し込む</text><text fill="#000000" font-family="sans-serif" font-size="13" lengthAdjust="spacingAndGlyphs" textLength="93" x="154" y="251.6094">(ack negotiate)</text><polygon fill="#FBFB77" filter="url(#fys6mf5)" points="106,269.3516,106,294.3516,183,294.3516,183,279.3516,173,269.3516,106,269.3516" style="stroke: #A80036; stroke-width: 1.0;"/><line style="stroke: #A80036; stroke-width: 1.0;" x1="173" x2="173" y1="269.3516" y2="279.3516"/><line style="stroke: #A80036; stroke-width: 1.0;" x1="183" x2="173" y1="279.3516" y2="279.3516"/><text fill="#000000" font-family="sans-serif" font-size="13" lengthAdjust="spacingAndGlyphs" textLength="56" x="112" y="286.9199">idle_wait</text><polygon fill="#A80036" points="378,335.6621,368,339.6621,378,343.6621,374,339.6621" style="stroke: #A80036; stroke-width: 1.0;"/><line style="stroke: #A80036; stroke-width: 1.0;" x1="372" x2="465" y1="339.6621" y2="339.6621"/><text fill="#000000" font-family="sans-serif" font-size="13" lengthAdjust="spacingAndGlyphs" textLength="65" x="384" y="320.2305">受け入れて</text><text fill="#000000" font-family="sans-serif" font-size="13" lengthAdjust="spacingAndGlyphs" textLength="49" x="384" y="335.541">(accept)</text><line style="stroke: #A80036; stroke-width: 1.0;" x1="147" x2="157" y1="384.2832" y2="380.2832"/><line style="stroke: #A80036; stroke-width: 1.0;" x1="147" x2="157" y1="384.2832" y2="388.2832"/><line style="stroke: #A80036; stroke-width: 1.0;" x1="147" x2="366" y1="384.2832" y2="384.2832"/><text fill="#000000" font-family="sans-serif" font-size="13" lengthAdjust="spacingAndGlyphs" textLength="65" x="164" y="364.8516">受け入れた</text><text fill="#000000" font-family="sans-serif" font-size="13" lengthAdjust="spacingAndGlyphs" textLength="64" x="164" y="380.1621">(accepted)</text><polygon fill="#FBFB77" filter="url(#fys6mf5)" points="325,397.9043,325,422.9043,405,422.9043,405,407.9043,395,397.9043,325,397.9043" style="stroke: #A80036; stroke-width: 1.0;"/><line style="stroke: #A80036; stroke-width: 1.0;" x1="395" x2="395" y1="397.9043" y2="407.9043"/><line style="stroke: #A80036; stroke-width: 1.0;" x1="405" x2="395" y1="407.9043" y2="407.9043"/><text fill="#000000" font-family="sans-serif" font-size="13" lengthAdjust="spacingAndGlyphs" textLength="59" x="331" y="415.4727">negotiate</text><polygon fill="#FBFB77" filter="url(#fys6mf5)" points="105,437.2148,105,462.2148,185,462.2148,185,447.2148,175,437.2148,105,437.2148" style="stroke: #A80036; stroke-width: 1.0;"/><line style="stroke: #A80036; stroke-width: 1.0;" x1="175" x2="175" y1="437.2148" y2="447.2148"/><line style="stroke: #A80036; stroke-width: 1.0;" x1="185" x2="175" y1="447.2148" y2="447.2148"/><text fill="#000000" font-family="sans-serif" font-size="13" lengthAdjust="spacingAndGlyphs" textLength="59" x="111" y="454.7832">negotiate</text><rect fill="none" height="259.0371" style="stroke: #000000; stroke-width: 2.0;" width="478" x="13" y="478.5254"/><polygon fill="#EEEEEE" points="13,478.5254,81,478.5254,81,485.5254,71,495.5254,13,495.5254,13,478.5254" style="stroke: #000000; stroke-width: 2.0;"/><text fill="#000000" font-family="sans-serif" font-size="13" font-weight="bold" lengthAdjust="spacingAndGlyphs" textLength="23" x="28" y="492.0938">par</text><polygon fill="#A80036" points="135,542.8359,145,546.8359,135,550.8359,139,546.8359" style="stroke: #A80036; stroke-width: 1.0;"/><line style="stroke: #A80036; stroke-width: 1.0;" x1="47" x2="141" y1="546.8359" y2="546.8359"/><text fill="#000000" font-family="sans-serif" font-size="13" lengthAdjust="spacingAndGlyphs" textLength="64" x="54" y="512.4043">提案(offer)</text><text fill="#000000" font-family="sans-serif" font-size="13" lengthAdjust="spacingAndGlyphs" textLength="13" x="54" y="527.7148">or</text><text fill="#000000" font-family="sans-serif" font-size="13" lengthAdjust="spacingAndGlyphs" textLength="75" x="54" y="543.0254">撤回(retract)</text><line style="stroke: #A80036; stroke-width: 1.0;" x1="365" x2="355" y1="606.7676" y2="602.7676"/><line style="stroke: #A80036; stroke-width: 1.0;" x1="365" x2="355" y1="606.7676" y2="610.7676"/><line style="stroke: #A80036; stroke-width: 1.0;" x1="147" x2="366" y1="606.7676" y2="606.7676"/><text fill="#000000" font-family="sans-serif" font-size="13" lengthAdjust="spacingAndGlyphs" textLength="64" x="154" y="572.3359">提案(offer)</text><text fill="#000000" font-family="sans-serif" font-size="13" lengthAdjust="spacingAndGlyphs" textLength="13" x="154" y="587.6465">or</text><text fill="#000000" font-family="sans-serif" font-size="13" lengthAdjust="spacingAndGlyphs" textLength="75" x="154" y="602.957">撤回(retract)</text><line style="stroke: #000000; stroke-width: 1.0; stroke-dasharray: 2.0,2.0;" x1="13" x2="491" y1="616.6992" y2="616.6992"/><polygon fill="#A80036" points="378,664.6992,368,668.6992,378,672.6992,374,668.6992" style="stroke: #A80036; stroke-width: 1.0;"/><line style="stroke: #A80036; stroke-width: 1.0;" x1="372" x2="465" y1="668.6992" y2="668.6992"/><text fill="#000000" font-family="sans-serif" font-size="13" lengthAdjust="spacingAndGlyphs" textLength="64" x="384" y="634.2676">提案(offer)</text><text fill="#000000" font-family="sans-serif" font-size="13" lengthAdjust="spacingAndGlyphs" textLength="13" x="384" y="649.5781">or</text><text fill="#000000" font-family="sans-serif" font-size="13" lengthAdjust="spacingAndGlyphs" textLength="75" x="384" y="664.8887">撤回(retract)</text><line style="stroke: #A80036; stroke-width: 1.0;" x1="147" x2="157" y1="728.6309" y2="724.6309"/><line style="stroke: #A80036; stroke-width: 1.0;" x1="147" x2="157" y1="728.6309" y2="732.6309"/><line style="stroke: #A80036; stroke-width: 1.0;" x1="147" x2="366" y1="728.6309" y2="728.6309"/><text fill="#000000" font-family="sans-serif" font-size="13" lengthAdjust="spacingAndGlyphs" textLength="64" x="164" y="694.1992">提案(offer)</text><text fill="#000000" font-family="sans-serif" font-size="13" lengthAdjust="spacingAndGlyphs" textLength="13" x="164" y="709.5098">or</text><text fill="#000000" font-family="sans-serif" font-size="13" lengthAdjust="spacingAndGlyphs" textLength="75" x="164" y="724.8203">撤回(retract)</text><polygon fill="#A80036" points="135,761.5625,145,765.5625,135,769.5625,139,765.5625" style="stroke: #A80036; stroke-width: 1.0;"/><line style="stroke: #A80036; stroke-width: 1.0;" x1="47" x2="141" y1="765.5625" y2="765.5625"/><text fill="#000000" font-family="sans-serif" font-size="13" lengthAdjust="spacingAndGlyphs" textLength="76" x="54" y="761.1309">: 準備(ready)</text><line style="stroke: #A80036; stroke-width: 1.0;" x1="365" x2="355" y1="794.873" y2="790.873"/><line style="stroke: #A80036; stroke-width: 1.0;" x1="365" x2="355" y1="794.873" y2="798.873"/><line style="stroke: #A80036; stroke-width: 1.0;" x1="147" x2="366" y1="794.873" y2="794.873"/><text fill="#000000" font-family="sans-serif" font-size="13" lengthAdjust="spacingAndGlyphs" textLength="196" x="154" y="790.4414">: 準備できてる？(are you ready?)</text><polygon fill="#FBFB77" filter="url(#fys6mf5)" points="121,808.1836,121,833.1836,168,833.1836,168,818.1836,158,808.1836,121,808.1836" style="stroke: #A80036; stroke-width: 1.0;"/><line style="stroke: #A80036; stroke-width: 1.0;" x1="158" x2="158" y1="808.1836" y2="818.1836"/><line style="stroke: #A80036; stroke-width: 1.0;" x1="168" x2="158" y1="818.1836" y2="818.1836"/><text fill="#000000" font-family="sans-serif" font-size="13" lengthAdjust="spacingAndGlyphs" textLength="26" x="127" y="825.752">wait</text><rect fill="none" height="596.1895" style="stroke: #000000; stroke-width: 2.0;" width="331.5" x="86" y="849.4941"/><polygon fill="#EEEEEE" points="86,849.4941,148,849.4941,148,856.4941,138,866.4941,86,866.4941,86,849.4941" style="stroke: #000000; stroke-width: 2.0;"/><text fill="#000000" font-family="sans-serif" font-size="13" font-weight="bold" lengthAdjust="spacingAndGlyphs" textLength="17" x="101" y="863.0625">alt</text><text fill="#000000" font-family="sans-serif" font-size="11" font-weight="bold" lengthAdjust="spacingAndGlyphs" textLength="118" x="163" y="862.1289">[準備完了しているとき]</text><polygon fill="#FBFB77" filter="url(#fys6mf5)" points="341,871.8047,341,896.8047,388,896.8047,388,881.8047,378,871.8047,341,871.8047" style="stroke: #A80036; stroke-width: 1.0;"/><line style="stroke: #A80036; stroke-width: 1.0;" x1="378" x2="378" y1="871.8047" y2="881.8047"/><line style="stroke: #A80036; stroke-width: 1.0;" x1="388" x2="378" y1="881.8047" y2="881.8047"/><text fill="#000000" font-family="sans-serif" font-size="13" lengthAdjust="spacingAndGlyphs" textLength="26" x="347" y="889.373">wait</text><line style="stroke: #A80036; stroke-width: 1.0;" x1="147" x2="157" y1="927.1152" y2="923.1152"/><line style="stroke: #A80036; stroke-width: 1.0;" x1="147" x2="157" y1="927.1152" y2="931.1152"/><line style="stroke: #A80036; stroke-width: 1.0;" x1="147" x2="366" y1="927.1152" y2="927.1152"/><text fill="#000000" font-family="sans-serif" font-size="13" lengthAdjust="spacingAndGlyphs" textLength="107" x="164" y="922.6836">準備完了！(ready)</text><polygon fill="#FBFB77" filter="url(#fys6mf5)" points="337,940.4258,337,965.4258,392,965.4258,392,950.4258,382,940.4258,337,940.4258" style="stroke: #A80036; stroke-width: 1.0;"/><line style="stroke: #A80036; stroke-width: 1.0;" x1="382" x2="382" y1="940.4258" y2="950.4258"/><line style="stroke: #A80036; stroke-width: 1.0;" x1="392" x2="382" y1="950.4258" y2="950.4258"/><text fill="#000000" font-family="sans-serif" font-size="13" lengthAdjust="spacingAndGlyphs" textLength="34" x="343" y="957.9941">ready</text><polygon fill="#FBFB77" filter="url(#fys6mf5)" points="117,979.7363,117,1004.7363,172,1004.7363,172,989.7363,162,979.7363,117,979.7363" style="stroke: #A80036; stroke-width: 1.0;"/><line style="stroke: #A80036; stroke-width: 1.0;" x1="162" x2="162" y1="979.7363" y2="989.7363"/><line style="stroke: #A80036; stroke-width: 1.0;" x1="172" x2="162" y1="989.7363" y2="989.7363"/><text fill="#000000" font-family="sans-serif" font-size="13" lengthAdjust="spacingAndGlyphs" textLength="34" x="123" y="997.3047">ready</text><line style="stroke: #A80036; stroke-width: 1.0;" x1="147" x2="157" y1="1035.0469" y2="1031.0469"/><line style="stroke: #A80036; stroke-width: 1.0;" x1="147" x2="157" y1="1035.0469" y2="1039.0469"/><line style="stroke: #A80036; stroke-width: 1.0;" x1="147" x2="366" y1="1035.0469" y2="1035.0469"/><text fill="#000000" font-family="sans-serif" font-size="13" lengthAdjust="spacingAndGlyphs" textLength="22" x="164" y="1030.6152">ack</text><line style="stroke: #A80036; stroke-width: 1.0;" x1="365" x2="355" y1="1064.3574" y2="1060.3574"/><line style="stroke: #A80036; stroke-width: 1.0;" x1="365" x2="355" y1="1064.3574" y2="1068.3574"/><line style="stroke: #A80036; stroke-width: 1.0;" x1="147" x2="366" y1="1064.3574" y2="1064.3574"/><text fill="#000000" font-family="sans-serif" font-size="13" lengthAdjust="spacingAndGlyphs" textLength="78" x="154" y="1059.9258">コミット確認</text><line style="stroke: #A80036; stroke-width: 1.0;" x1="147" x2="157" y1="1093.668" y2="1089.668"/><line style="stroke: #A80036; stroke-width: 1.0;" x1="147" x2="157" y1="1093.668" y2="1097.668"/><line style="stroke: #A80036; stroke-width: 1.0;" x1="147" x2="366" y1="1093.668" y2="1093.668"/><text fill="#000000" font-family="sans-serif" font-size="13" lengthAdjust="spacingAndGlyphs" textLength="16" x="164" y="1089.2363">ok</text><line style="stroke: #A80036; stroke-width: 1.0;" x1="365" x2="355" y1="1122.9785" y2="1118.9785"/><line style="stroke: #A80036; stroke-width: 1.0;" x1="365" x2="355" y1="1122.9785" y2="1126.9785"/><line style="stroke: #A80036; stroke-width: 1.0;" x1="147" x2="366" y1="1122.9785" y2="1122.9785"/><text fill="#000000" font-family="sans-serif" font-size="13" lengthAdjust="spacingAndGlyphs" textLength="52" x="154" y="1118.5469">コミット</text><polygon fill="#FBFB77" filter="url(#fys6mf5)" points="328,1136.2891,328,1161.2891,401,1161.2891,401,1146.2891,391,1136.2891,328,1136.2891" style="stroke: #A80036; stroke-width: 1.0;"/><line style="stroke: #A80036; stroke-width: 1.0;" x1="391" x2="391" y1="1136.2891" y2="1146.2891"/><line style="stroke: #A80036; stroke-width: 1.0;" x1="401" x2="391" y1="1146.2891" y2="1146.2891"/><text fill="#000000" font-family="sans-serif" font-size="13" lengthAdjust="spacingAndGlyphs" textLength="52" x="334" y="1153.8574">……保存</text><line style="stroke: #A80036; stroke-width: 1.0;" x1="147" x2="157" y1="1191.5996" y2="1187.5996"/><line style="stroke: #A80036; stroke-width: 1.0;" x1="147" x2="157" y1="1191.5996" y2="1195.5996"/><line style="stroke: #A80036; stroke-width: 1.0;" x1="147" x2="366" y1="1191.5996" y2="1191.5996"/><text fill="#000000" font-family="sans-serif" font-size="13" lengthAdjust="spacingAndGlyphs" textLength="16" x="164" y="1187.168">ok</text><polygon fill="#FBFB77" filter="url(#fys6mf5)" points="108,1204.9102,108,1229.9102,181,1229.9102,181,1214.9102,171,1204.9102,108,1204.9102" style="stroke: #A80036; stroke-width: 1.0;"/><line style="stroke: #A80036; stroke-width: 1.0;" x1="171" x2="171" y1="1204.9102" y2="1214.9102"/><line style="stroke: #A80036; stroke-width: 1.0;" x1="181" x2="171" y1="1214.9102" y2="1214.9102"/><text fill="#000000" font-family="sans-serif" font-size="13" lengthAdjust="spacingAndGlyphs" textLength="52" x="114" y="1222.4785">保存……</text><polygon fill="#FBFB77" filter="url(#fys6mf5)" points="341,1244.2207,341,1269.2207,388,1269.2207,388,1254.2207,378,1244.2207,341,1244.2207" style="stroke: #A80036; stroke-width: 1.0;"/><line style="stroke: #A80036; stroke-width: 1.0;" x1="378" x2="378" y1="1244.2207" y2="1254.2207"/><line style="stroke: #A80036; stroke-width: 1.0;" x1="388" x2="378" y1="1254.2207" y2="1254.2207"/><text fill="#000000" font-family="sans-serif" font-size="13" lengthAdjust="spacingAndGlyphs" textLength="26" x="347" y="1261.7891">停止</text><polygon fill="#FBFB77" filter="url(#fys6mf5)" points="121,1283.5313,121,1308.5313,168,1308.5313,168,1293.5313,158,1283.5313,121,1283.5313" style="stroke: #A80036; stroke-width: 1.0;"/><line style="stroke: #A80036; stroke-width: 1.0;" x1="158" x2="158" y1="1283.5313" y2="1293.5313"/><line style="stroke: #A80036; stroke-width: 1.0;" x1="168" x2="158" y1="1293.5313" y2="1293.5313"/><text fill="#000000" font-family="sans-serif" font-size="13" lengthAdjust="spacingAndGlyphs" textLength="26" x="127" y="1301.0996">停止</text><line style="stroke: #000000; stroke-width: 1.0; stroke-dasharray: 2.0,2.0;" x1="86" x2="417.5" y1="1318.8418" y2="1318.8418"/><text fill="#000000" font-family="sans-serif" font-size="11" font-weight="bold" lengthAdjust="spacingAndGlyphs" textLength="63" x="91" y="1329.4766">[まだのとき]</text><line style="stroke: #A80036; stroke-width: 1.0;" x1="147" x2="157" y1="1353.7969" y2="1349.7969"/><line style="stroke: #A80036; stroke-width: 1.0;" x1="147" x2="157" y1="1353.7969" y2="1357.7969"/><line style="stroke: #A80036; stroke-width: 1.0;" x1="147" x2="366" y1="1353.7969" y2="1353.7969"/><text fill="#000000" font-family="sans-serif" font-size="13" lengthAdjust="spacingAndGlyphs" textLength="44" x="164" y="1349.3652">not yet</text><line style="stroke: #000000; stroke-width: 1.0; stroke-dasharray: 2.0,2.0;" x1="86" x2="417.5" y1="1363.1074" y2="1363.1074"/><text fill="#000000" font-family="sans-serif" font-size="11" font-weight="bold" lengthAdjust="spacingAndGlyphs" textLength="317" x="91" y="1373.7422">[JimのFSMから新たな提案(offer)や撤回(retract)があったとき]</text><line style="stroke: #A80036; stroke-width: 1.0;" x1="147" x2="157" y1="1398.0625" y2="1394.0625"/><line style="stroke: #A80036; stroke-width: 1.0;" x1="147" x2="157" y1="1398.0625" y2="1402.0625"/><line style="stroke: #A80036; stroke-width: 1.0;" x1="147" x2="366" y1="1398.0625" y2="1398.0625"/><text fill="#000000" font-family="sans-serif" font-size="13" lengthAdjust="spacingAndGlyphs" textLength="146" x="164" y="1393.6309">提案(offer)/撤回(retract)</text><polygon fill="#FBFB77" filter="url(#fys6mf5)" points="121,1411.373,121,1436.373,168,1436.373,168,1421.373,158,1411.373,121,1411.373" style="stroke: #A80036; stroke-width: 1.0;"/><line style="stroke: #A80036; stroke-width: 1.0;" x1="158" x2="158" y1="1411.373" y2="1421.373"/><line style="stroke: #A80036; stroke-width: 1.0;" x1="168" x2="158" y1="1421.373" y2="1421.373"/><text fill="#000000" font-family="sans-serif" font-size="13" lengthAdjust="spacingAndGlyphs" textLength="26" x="127" y="1428.9414">wait</text></g></svg>